--40003LOG 15:24:12:199681679 Waiting for file /home/seluser/videos/vid_chrome_or_firefox_40003* to be created...
Won't start video recording due to VIDEO env var false
ffmpeg version 2.8.15-0ubuntu0.16.04.1 Copyright (c) 2000-2018 the FFmpeg developers
  built with gcc 5.4.0 (Ubuntu 5.4.0-6ubuntu1~16.04.10) 20160609
  configuration: --prefix=/usr --extra-version=0ubuntu0.16.04.1 --build-suffix=-ffmpeg --toolchain=hardened --libdir=/usr/lib/x86_64-linux-gnu --incdir=/usr/include/x86_64-linux-gnu --cc=cc --cxx=g++ --enable-gpl --enable-shared --disable-stripping --disable-decoder=libopenjpeg --disable-decoder=libschroedinger --enable-avresample --enable-avisynth --enable-gnutls --enable-ladspa --enable-libass --enable-libbluray --enable-libbs2b --enable-libcaca --enable-libcdio --enable-libflite --enable-libfontconfig --enable-libfreetype --enable-libfribidi --enable-libgme --enable-libgsm --enable-libmodplug --enable-libmp3lame --enable-libopenjpeg --enable-libopus --enable-libpulse --enable-librtmp --enable-libschroedinger --enable-libshine --enable-libsnappy --enable-libsoxr --enable-libspeex --enable-libssh --enable-libtheora --enable-libtwolame --enable-libvorbis --enable-libvpx --enable-libwavpack --enable-libwebp --enable-libx265 --enable-libxvid --enable-libzvbi --enable-openal --enable-opengl --enable-x11grab --enable-libdc1394 --enable-libiec61883 --enable-libzmq --enable-frei0r --enable-libx264 --enable-libopencv
  libavutil      54. 31.100 / 54. 31.100
  libavcodec     56. 60.100 / 56. 60.100
  libavformat    56. 40.101 / 56. 40.101
  libavdevice    56.  4.100 / 56.  4.100
  libavfilter     5. 40.101 /  5. 40.101
  libavresample   2.  1.  0 /  2.  1.  0
  libswscale      3.  1.101 /  3.  1.101
  libswresample   1.  2.101 /  1.  2.101
  libpostproc    53.  3.100 / 53.  3.100
Input #0, x11grab, from ':75.0':
  Duration: N/A, start: 1578925452.943974, bitrate: N/A
    Stream #0:0: Video: rawvideo (BGR[0] / 0x524742), bgr0, 1920x1080, 29.97 fps, 29.97 tbr, 1000k tbn, 29.97 tbc
[libx264 @ 0x7d3160] using cpu capabilities: MMX2 SSE2Fast SSSE3 SSE4.2 AVX FMA3 AVX2 LZCNT BMI2
[libx264 @ 0x7d3160] profile Constrained Baseline, level 4.0
[libx264 @ 0x7d3160] 264 - core 148 r2643 5c65704 - H.264/MPEG-4 AVC codec - Copyleft 2003-2015 - http://www.videolan.org/x264.html - options: cabac=0 ref=1 deblock=0:0:0 analyse=0:0 me=dia subme=0 psy=1 psy_rd=1.00:0.00 mixed_ref=0 me_range=16 chroma_me=1 trellis=0 8x8dct=0 cqm=0 deadzone=21,11 fast_pskip=1 chroma_qp_offset=0 threads=3 lookahead_threads=1 sliced_threads=0 nr=0 decimate=1 interlaced=0 bluray_compat=0 constrained_intra=0 bframes=0 weightp=0 keyint=250 keyint_min=10 scenecut=0 intra_refresh=0 rc=crf mbtree=0 crf=23.0 qcomp=0.60 qpmin=0 qpmax=69 qpstep=4 ip_ratio=1.40 aq=0
Output #0, matroska, to '/home/seluser/videos/vid_chrome_or_firefox_40003.mkv':
  Metadata:
    encoder         : Lavf56.40.101
    Stream #0:0: Video: h264 (libx264) (H264 / 0x34363248), yuv420p, 1920x1080, q=-1--1, 10 fps, 1k tbn, 10 tbc
    Metadata:
      encoder         : Lavc56.60.100 libx264
Stream mapping:
  Stream #0:0 -> #0:0 (rawvideo (native) -> h264 (libx264))
Press [q] to stop, [?] for help
frame=    4 fps=2.0 q=0.0 size=       1kB time=00:00:00.00 bitrate=N/A    
frame=    5 fps=1.4 q=9.0 size=      36kB time=00:00:00.10 bitrate=2976.5kbits/s    
frame=    6 fps=1.2 q=6.0 size=      51kB time=00:00:00.40 bitrate=1047.7kbits/s    
frame=    7 fps=1.2 q=5.0 size=      57kB time=00:00:00.60 bitrate= 780.3kbits/s    
frame=    9 fps=1.4 q=8.0 size=      76kB time=00:00:03.80 bitrate= 164.7kbits/s    
frame=   13 fps=1.9 q=8.0 size=      82kB time=00:00:06.60 bitrate= 102.4kbits/s    
frame=   14 fps=1.9 q=9.0 size=      82kB time=00:00:06.70 bitrate= 100.9kbits/s    
frame=   17 fps=2.1 q=8.0 size=      83kB time=00:00:07.20 bitrate=  93.9kbits/s    
frame=   19 fps=2.1 q=7.0 size=      83kB time=00:00:08.00 bitrate=  84.8kbits/s    
frame=   24 fps=2.5 q=9.0 size=     126kB time=00:00:09.40 bitrate= 109.5kbits/s dup=0 drop=2    
frame=   29 fps=2.9 q=9.0 size=     126kB time=00:00:09.90 bitrate= 104.6kbits/s dup=0 drop=2    
frame=   34 fps=3.2 q=10.0 size=     131kB time=00:00:10.50 bitrate= 102.2kbits/s dup=0 drop=3    
frame=   40 fps=3.6 q=9.0 size=     135kB time=00:00:11.10 bitrate= 100.0kbits/s dup=0 drop=4    
frame=   45 fps=3.8 q=9.0 size=     136kB time=00:00:11.60 bitrate=  95.8kbits/s dup=0 drop=4    
--40003LOG 15:24:24:998874381 Trapped SIGTERM or SIGINT so shutting down ffmpeg gracefully...
--40003LOG 15:24:25:023177646 Will kill VID_TOOL_PID=905 ...
frame=   46 fps=3.8 q=-1.0 Lsize=     136kB time=00:00:12.10 bitrate=  92.0kbits/s dup=0 drop=4    
video:135kB audio:0kB subtitle:0kB other streams:0kB global headers:0kB muxing overhead: 0.771510%
[libx264 @ 0x7d3160] frame I:1     Avg QP:20.00  size: 35891
[libx264 @ 0x7d3160] frame P:45    Avg QP: 8.60  size:  2257
[libx264 @ 0x7d3160] mb I  I16..4: 100.0%  0.0%  0.0%
[libx264 @ 0x7d3160] mb P  I16..4:  2.9%  0.0%  0.0%  P16..4:  0.9%  0.0%  0.0%  0.0%  0.0%    skip:96.2%
[libx264 @ 0x7d3160] coded y,uvDC,uvAC intra: 4.3% 1.8% 1.6% inter: 0.4% 0.4% 0.3%
[libx264 @ 0x7d3160] i16 v,h,dc,p: 85% 14%  1%  0%
[libx264 @ 0x7d3160] i8c dc,h,v,p: 86% 11%  2%  0%
[libx264 @ 0x7d3160] kb/s:90.87
Exiting normally, received signal 2.
--40003LOG 15:24:26:086424713 Tried to kill -SIGTERM VID_TOOL_PID=905
--40003LOG 15:24:26:213595617 Waiting up to 6s for VID_TOOL_PID=905 to end with SIGTERM...
--40003LOG 15:24:26:338140266 wait_pid successfully managed to SIGTERM:VID_TOOL_PID=905 within less than 6s
--40003LOG 15:24:26:387615733 Will try to fix the videos...
--40003LOG 15:24:27:023506519 Fixing perms for /home/seluser/videos/vid_chrome_or_firefox_40003.mkv*
--40003LOG 15:24:27:139092980 Changing video encoding from mkv to mp4...
--40003LOG 15:24:34:436316185 Conversion from mkv to mp4 succeeded!
--40003LOG 15:24:34:466679681 Cleaning up /home/seluser/videos/vid_chrome_or_firefox_40003.mkv ...
--40003LOG 15:24:34:505839851 Optimizing /home/seluser/videos/vid_chrome_or_firefox_40003.mp4 for HTTP streaming...
--40003LOG 15:24:35:230817919 Succeeded to mp4box_retry.sh within 8s
--40003LOG 15:24:35:256520082 ffmpeg shutdown complete.
